<svg width="24" height="24" viewBox="0 0 24 24" fill="none" xmlns="http://www.w3.org/2000/svg">
<path d="M13.0584 3.844L13.0591 3.84541L14.8179 7.36298C15.0054 7.74403 15.3186 8.06975 15.6422 8.3085C15.9671 8.54823 16.3703 8.7504 16.7867 8.8198L16.787 8.81986L19.9767 9.34979C19.9768 9.34982 19.9769 9.34984 19.977 9.34986C20.8674 9.49834 21.1596 9.84924 21.2272 10.0595C21.2943 10.2681 21.2626 10.721 20.6214 11.3579L20.6196 11.3597L18.1396 13.8397C17.8172 14.1621 17.6016 14.5932 17.4827 15.0086C17.3637 15.4244 17.3192 15.9025 17.4181 16.344L17.4181 16.344L17.4193 16.349L18.1291 19.4184C18.3945 20.5702 18.1271 20.9847 17.9944 21.0815C17.8604 21.1791 17.3811 21.3064 16.362 20.7046C16.3618 20.7045 16.3616 20.7044 16.3614 20.7042L13.3723 18.9348C13.3722 18.9347 13.3721 18.9347 13.372 18.9346C12.9581 18.6894 12.4598 18.59 12.0037 18.59C11.5468 18.59 11.0488 18.6897 10.6328 18.9317L10.6328 18.9317L10.6279 18.9346L7.63791 20.7046L7.63721 20.705C6.62632 21.3049 6.14596 21.1774 6.00955 21.0779C5.87372 20.9788 5.60624 20.5618 5.87066 19.4191L5.87068 19.419L6.58068 16.349L6.5807 16.349L6.58181 16.344C6.68078 15.9025 6.63628 15.4244 6.51726 15.0086C6.39834 14.5932 6.18269 14.1621 5.8603 13.8397L3.3803 11.3597C2.7433 10.7227 2.70974 10.2685 2.77693 10.0581C2.84387 9.8485 3.13329 9.49821 4.02289 9.34986C4.02302 9.34984 4.02314 9.34982 4.02327 9.34979L7.21289 8.81986L7.21289 8.81986L7.21553 8.81941C7.62764 8.74943 8.02813 8.54642 8.35042 8.30746C8.67178 8.06918 8.98469 7.74377 9.17203 7.36293L10.9301 3.84681C10.9302 3.84662 10.9303 3.84643 10.9304 3.84624C11.3561 2.99957 11.7861 2.8275 11.9987 2.8275C12.21 2.8275 12.6377 2.99798 13.0584 3.844Z" fill="#F78812" stroke="#F78812" stroke-width="1.5" stroke-linecap="round" stroke-linejoin="round"/>
</svg>
