<?xml version="1.0" encoding="UTF-8"?>
<svg xmlns="http://www.w3.org/2000/svg" xmlns:xlink="http://www.w3.org/1999/xlink" width="50pt" height="50pt" viewBox="0 0 50 50" version="1.1">
<g id="surface1">
<path style=" stroke:none;fill-rule:nonzero;fill:rgb(0%,0%,0%);fill-opacity:1;" d="M 25 3.125 C 29.316406 3.125 32.8125 6.621094 32.8125 10.9375 L 32.8125 12.5 L 17.1875 12.5 L 17.1875 10.9375 C 17.1875 6.621094 20.683594 3.125 25 3.125 Z M 35.9375 12.5 L 35.9375 10.9375 C 35.9375 4.898438 31.039062 0 25 0 C 18.960938 0 14.0625 4.898438 14.0625 10.9375 L 14.0625 12.5 L 3.125 12.5 L 3.125 43.75 C 3.125 47.203125 5.921875 50 9.375 50 L 40.625 50 C 44.078125 50 46.875 47.203125 46.875 43.75 L 46.875 12.5 Z M 6.25 15.625 L 43.75 15.625 L 43.75 43.75 C 43.75 45.476562 42.351562 46.875 40.625 46.875 L 9.375 46.875 C 7.648438 46.875 6.25 45.476562 6.25 43.75 Z M 6.25 15.625 "/>
</g>
</svg>
