<?xml version="1.0" encoding="UTF-8"?>
<svg xmlns="http://www.w3.org/2000/svg" xmlns:xlink="http://www.w3.org/1999/xlink" width="50pt" height="50pt" viewBox="0 0 50 50" version="1.1">
<g id="surface1">
<path style=" stroke:none;fill-rule:nonzero;fill:rgb(0%,0%,0%);fill-opacity:1;" d="M 34.375 3.125 C 36.101562 3.125 37.5 4.523438 37.5 6.25 L 37.5 43.75 C 37.5 45.476562 36.101562 46.875 34.375 46.875 L 15.625 46.875 C 13.898438 46.875 12.5 45.476562 12.5 43.75 L 12.5 6.25 C 12.5 4.523438 13.898438 3.125 15.625 3.125 Z M 15.625 0 C 12.171875 0 9.375 2.796875 9.375 6.25 L 9.375 43.75 C 9.375 47.203125 12.171875 50 15.625 50 L 34.375 50 C 37.828125 50 40.625 47.203125 40.625 43.75 L 40.625 6.25 C 40.625 2.796875 37.828125 0 34.375 0 Z M 15.625 0 "/>
<path style=" stroke:none;fill-rule:nonzero;fill:rgb(0%,0%,0%);fill-opacity:1;" d="M 25 43.75 C 26.726562 43.75 28.125 42.351562 28.125 40.625 C 28.125 38.898438 26.726562 37.5 25 37.5 C 23.273438 37.5 21.875 38.898438 21.875 40.625 C 21.875 42.351562 23.273438 43.75 25 43.75 Z M 25 43.75 "/>
</g>
</svg>
