<?xml version="1.0" encoding="UTF-8"?>
<svg xmlns="http://www.w3.org/2000/svg" xmlns:xlink="http://www.w3.org/1999/xlink" width="50pt" height="50pt" viewBox="0 0 50 50" version="1.1">
<g id="surface1">
<path style=" stroke:none;fill-rule:nonzero;fill:rgb(0%,0%,0%);fill-opacity:1;" d="M 0 10.9375 C 0 8.347656 2.097656 6.25 4.6875 6.25 L 32.8125 6.25 C 35.402344 6.25 37.5 8.347656 37.5 10.9375 L 37.5 15.625 L 40.6875 15.625 C 42.109375 15.625 43.457031 16.273438 44.34375 17.382812 L 48.972656 23.164062 C 49.636719 23.996094 50 25.03125 50 26.097656 L 50 32.8125 C 50 35.402344 47.902344 37.5 45.3125 37.5 L 43.75 37.5 C 43.75 40.953125 40.953125 43.75 37.5 43.75 C 34.046875 43.75 31.25 40.953125 31.25 37.5 L 15.625 37.5 C 15.628906 39.769531 14.40625 41.859375 12.425781 42.96875 C 10.449219 44.074219 8.023438 44.023438 6.09375 42.832031 C 4.164062 41.640625 3.03125 39.5 3.132812 37.234375 C 1.253906 36.574219 0 34.800781 0 32.8125 Z M 4.042969 34.238281 C 5.191406 32.355469 7.25 31.21875 9.453125 31.246094 C 11.660156 31.277344 13.6875 32.464844 14.789062 34.375 L 32.085938 34.375 C 32.636719 33.425781 33.425781 32.636719 34.375 32.085938 L 34.375 10.9375 C 34.375 10.074219 33.675781 9.375 32.8125 9.375 L 4.6875 9.375 C 3.824219 9.375 3.125 10.074219 3.125 10.9375 L 3.125 32.8125 C 3.125 33.425781 3.484375 33.984375 4.042969 34.238281 Z M 37.5 31.25 C 39.734375 31.25 41.796875 32.441406 42.914062 34.375 L 45.3125 34.375 C 46.175781 34.375 46.875 33.675781 46.875 32.8125 L 46.875 26.09375 C 46.875 25.738281 46.753906 25.394531 46.53125 25.117188 L 41.90625 19.335938 C 41.609375 18.96875 41.160156 18.75 40.6875 18.75 L 37.5 18.75 Z M 9.375 34.375 C 7.648438 34.375 6.25 35.773438 6.25 37.5 C 6.25 39.226562 7.648438 40.625 9.375 40.625 C 11.101562 40.625 12.5 39.226562 12.5 37.5 C 12.5 35.773438 11.101562 34.375 9.375 34.375 Z M 37.5 34.375 C 35.773438 34.375 34.375 35.773438 34.375 37.5 C 34.375 39.226562 35.773438 40.625 37.5 40.625 C 39.226562 40.625 40.625 39.226562 40.625 37.5 C 40.625 35.773438 39.226562 34.375 37.5 34.375 Z M 37.5 34.375 "/>
</g>
</svg>
